<svg width="120" height="132" viewBox="0 0 120 132" fill="none" xmlns="http://www.w3.org/2000/svg">
<g clip-path="url(#clip0_45_140)">
<path d="M96.9159 70.5881C96.915 71.184 97.0908 71.7669 97.4213 72.2628C97.7517 72.7588 98.2218 73.1456 98.7721 73.3743C99.3224 73.603 99.9282 73.6633 100.513 73.5476C101.097 73.4319 101.635 73.1454 102.056 72.7244C102.478 72.3033 102.765 71.7666 102.882 71.1821C102.999 70.5977 102.939 69.9918 102.711 69.4411C102.484 68.8904 102.097 68.4197 101.602 68.0885C101.107 67.7574 100.524 67.5806 99.9281 67.5806C99.5327 67.58 99.1412 67.6573 98.7757 67.8082C98.4103 67.959 98.0782 68.1805 97.7984 68.4598C97.5187 68.7391 97.2967 69.0709 97.1453 69.4361C96.9938 69.8013 96.9159 70.1927 96.9159 70.5881Z" fill="white"/>
<path d="M52.9078 94.5937V72.225C52.9078 72.0375 52.9031 71.8593 52.8984 71.6625C52.7631 66.0257 50.4557 60.6591 46.4578 56.6831C46.193 56.4186 45.834 56.2702 45.4598 56.2705C45.0856 56.2708 44.7268 56.4197 44.4623 56.6845C44.1979 56.9493 44.0495 57.3083 44.0498 57.6825C44.05 58.0567 44.1989 58.4155 44.4637 58.68C47.3731 61.5652 49.2704 65.3145 49.8722 69.3675C50.2884 70.6537 50.0091 89.9362 50.085 91.7812H30.5109C27.99 91.7871 25.493 91.2929 23.1643 90.3274C20.8356 89.3619 18.7215 87.9441 16.9444 86.1562C16.6796 85.8916 16.3205 85.7431 15.9462 85.7433C15.5719 85.7435 15.213 85.8923 14.9484 86.1571C14.6839 86.4219 14.5353 86.781 14.5355 87.1553C14.5357 87.5296 14.6846 87.8885 14.9494 88.1531C16.989 90.2018 19.4146 91.8257 22.0859 92.9311C24.7571 94.0364 27.621 94.6012 30.5119 94.5928L52.9078 94.5937Z" fill="white"/>
<path d="M31.6603 82.6312C37.0153 82.725 41.055 78.8221 40.9547 73.3499C40.9547 68.8453 38.5275 63.7293 34.4597 59.6624C26.8003 52.6312 12.8972 52.6752 10.8141 52.4924C11.0016 54.569 10.9472 68.4581 17.9925 76.1174C22.2422 80.3587 27.3188 82.6312 31.6603 82.6312ZM32.4647 61.6593C36.871 66.0084 40.4166 73.6256 36.4078 78.0562C33.0253 81.4312 25.5066 79.6293 19.9875 74.1187C15.406 69.5428 14.1235 59.3746 13.7944 55.4718C17.6991 55.799 27.8756 57.074 32.4647 61.6593Z" fill="white"/>
<path d="M31.4203 78.0637C34.2638 78.1181 36.4631 75.9825 36.4078 73.0809C36.5363 66.9572 27.4734 60.1012 22.8609 64.5243C21.9544 65.43 21.4753 66.6722 21.4753 68.1178C21.3816 72.8053 26.8331 78.1875 31.4203 78.0637ZM24.8578 66.5212C26.4244 65.1581 29.4347 66.4846 31.2328 68.3118C32.9034 69.9431 34.47 73.0537 33.0253 74.6775C31.9406 75.7612 29.055 75.2925 26.6503 72.8878C24.9788 71.2575 23.4113 68.145 24.8559 66.5212H24.8578Z" fill="white"/>
<path d="M120 111.064V72.4328L119.847 69.3587C118.987 61.1237 114.699 53.0462 107.778 47.395C104.277 44.7466 100.278 43.5372 96.48 42.6278C94.4316 42.0981 92.355 41.8675 90.2541 41.7953C88.0903 41.6866 81.3769 41.7756 79.1128 41.7475V25.8869C79.111 11.605 67.6631 -0.0134277 53.5903 -0.0134277C39.5175 -0.0134277 28.0697 11.605 28.0697 25.8869V41.7475H0V72.685C0 87.7787 11.0738 100.341 25.5309 102.685C25.2703 102.797 25.0134 102.902 24.7809 102.997C21.8747 104.122 18.8897 105.247 17.9925 108.38C17.5238 108.152 17.0653 107.952 16.5966 107.773L16.5403 107.751C12.5156 106.257 7.43156 106.073 1.65563 107.292C1.40954 107.392 1.17858 107.526 0.969375 107.69C0.664644 107.94 0.420312 108.255 0.254702 108.612C0.0890916 108.969 0.00650154 109.359 0.013125 109.753L0.0253125 110.409C0.04875 111.262 0.0909375 112.097 0.151875 112.894C0.533438 116.438 1.34906 120.03 2.72438 122.492L4.21406 124.787C9.18938 131.169 18.7791 131.195 30.7134 131.167C30.7412 131.17 30.7691 131.17 30.7969 131.167C31.3406 131.167 59.2856 131.167 60.5494 131.167C65.0222 131.167 69.5335 128.294 70.1119 121.922H71.3063C73.5363 121.921 75.6751 121.036 77.2534 119.461C78.8317 117.885 79.7206 115.748 79.725 113.518V109.414H72.4885C71.7113 109.414 70.9379 109.523 70.1907 109.737V107.54H71.3053C73.5362 107.539 75.6754 106.653 77.2537 105.076C78.8319 103.499 79.7204 101.361 79.7241 99.13V95.0322H72.4885C71.7114 95.032 70.9381 95.1396 70.1907 95.3519V92.5206H71.3053C72.4855 92.5171 73.6518 92.265 74.7281 91.7809C78.4918 93.8163 82.6405 95.0398 86.9063 95.3725C89.3438 95.56 96.5503 95.4353 99.0553 95.4719C100.916 99.2219 103.141 102.334 105.685 104.722C105.821 104.849 105.98 104.948 106.153 105.013C106.327 105.079 106.512 105.109 106.697 105.103C106.883 105.097 107.065 105.054 107.234 104.978C107.403 104.901 107.555 104.792 107.682 104.657C107.809 104.521 107.908 104.362 107.973 104.188C108.039 104.015 108.069 103.83 108.063 103.645C108.057 103.459 108.014 103.277 107.938 103.108C107.861 102.939 107.752 102.786 107.617 102.66C105.15 100.344 102.994 97.2466 101.208 93.4553C101.091 93.2157 100.909 93.0132 100.684 92.8703C100.459 92.7273 100.199 92.6495 99.9319 92.6453C97.5732 92.6097 89.3766 92.7316 87.1228 92.5516C83.7335 92.2868 80.4216 91.4015 77.3522 89.9397C80.2744 86.8947 79.6781 83.8319 79.7278 80.0022H69.9225C68.726 80.0021 67.5433 80.2578 66.4538 80.7522C63.3703 76.3984 61.5694 70.9778 61.4269 65.7522C61.3997 64.4622 61.4035 63.1722 61.4063 61.8822C61.4063 60.9822 61.4063 45.9053 61.4063 44.5638C63.3385 44.59 88.7728 44.5047 90.0722 44.605C91.8591 44.6575 94.0407 44.8928 95.7778 45.355C99.2916 46.1931 102.97 47.2928 106.071 49.6384C112.264 54.7009 116.259 62.1672 117.027 69.5556L117.174 72.4937V111.042C117.155 112.964 117.268 114.965 116.864 116.773C115.797 122.168 111.339 126.732 105.939 127.944C103.408 128.572 99.9844 128.281 97.291 128.345C96.3741 128.331 95.3832 128.396 94.53 128.209C87.9422 126.951 85.7719 118.715 90.886 114.387C96.0657 110.156 103.789 113.718 103.866 120.468C103.959 122.337 106.63 122.314 106.688 120.439C106.659 112.906 99.0216 107.734 92.0635 110.472C87.6741 112.153 84.8072 116.702 85.2741 121.474C85.6941 126.192 89.3991 130.172 93.9797 130.985C95.146 131.228 96.1632 131.162 97.276 131.173C97.8216 131.187 100.889 131.164 101.355 131.173C110.011 131.627 117.855 125.9 119.628 117.362C120.099 115.212 119.98 113.174 120 111.064ZM2.82188 72.6887V44.5703H30.9759C44.5397 44.5703 56.2791 54.6522 58.2835 68.0238C58.4526 69.1515 58.5512 70.2887 58.5788 71.4287C58.5844 71.6687 58.59 71.9041 58.59 72.1441V100.269H30.4313C15.2072 100.269 2.82188 87.8969 2.82188 72.6887ZM6.76782 123.446L6.43125 123.027C4.005 120.197 2.85375 114.51 2.83781 109.909C8.31938 109 12.2691 109.089 15.9731 110.57C16.5563 110.81 17.1204 111.094 17.6606 111.42C17.7356 117.707 18.8138 124.239 24.4022 128.312C16.3069 128.161 10.2806 127.389 6.76782 123.446ZM30.6947 128.278C23.7066 126.092 20.7684 121.455 20.5078 112.068V110.657C20.5134 109.495 20.7525 108.523 21.5813 107.758C22.7625 106.649 25.2619 105.916 26.9081 105.171C27.4509 104.945 27.9813 104.69 28.4972 104.408C29.1793 104.052 29.8309 103.64 30.4453 103.177C30.6263 103.044 30.7866 103.068 30.975 103.177C31.5774 103.633 32.2161 104.039 32.8847 104.39C33.688 104.818 34.5157 105.198 35.3634 105.528C36.8503 106.149 38.4384 106.641 39.6197 107.568C40.3528 108.225 40.8591 108.787 40.905 110.656C40.9078 121.005 38.0278 125.984 30.6947 128.278ZM36.9759 128.317C42.5634 124.248 43.6463 117.723 43.726 111.442C47.7103 108.963 53.46 108.978 58.5385 109.903C58.5607 110.048 58.5745 110.194 58.5797 110.341C58.5619 111.455 58.5094 112.46 58.4288 113.389C57.9516 116.653 57.2513 119.565 55.9913 121.608C55.5385 122.33 54.946 123.06 54.4135 123.727C50.8519 127.428 44.9128 128.173 36.9769 128.317H36.9759ZM64.3322 88.4228C64.3337 86.9408 64.9232 85.5199 65.9713 84.4722C67.0194 83.4244 68.4405 82.8354 69.9225 82.8344H76.9013V84.1103C76.9 85.5933 76.3098 87.015 75.2604 88.0629C74.211 89.1107 72.7883 89.6988 71.3053 89.6978H67.3678V100.088L69.5353 98.7184C70.419 98.1601 71.4432 97.8645 72.4885 97.8662H76.9013V99.1422C76.8983 100.625 76.3075 102.045 75.2585 103.093C74.2094 104.14 72.7878 104.729 71.3053 104.73H67.3678V114.461L69.5297 113.103C70.4156 112.546 71.4409 112.25 72.4875 112.249H76.9003V113.531C76.8966 115.013 76.3054 116.432 75.2564 117.479C74.2073 118.525 72.7861 119.113 71.3044 119.113H67.351V120.519C67.351 126.295 63.8372 128.354 60.5475 128.354H52.92C54.3746 127.582 55.679 126.555 56.7713 125.323H58.125C61.8638 125.323 64.4756 122.979 64.4756 119.626L64.4813 110.532L64.335 102.938L64.3322 88.4228ZM64.125 82.3478C62.7624 83.6414 61.8731 85.3546 61.5994 87.2134V77.6191C62.175 79.2672 63.0816 80.8544 64.125 82.3478ZM61.5131 103.091L61.6575 110.561L61.65 119.625C61.65 121.468 60.2175 122.279 58.7747 122.46C60.3235 119.771 61.306 116.272 61.3997 110.39C61.4203 110.39 61.3641 108.482 60.7069 107.944C60.3319 107.537 59.8337 107.263 59.2885 107.166C53.8331 106.167 47.9953 106.092 43.4241 108.385C42.9966 106.871 41.9522 105.654 40.6322 104.818H40.6219C39.4969 104.101 38.2031 103.624 36.8653 103.087L61.5131 103.091ZM76.2891 41.7475H60L58.5881 41.7522V59.3903C53.685 48.9006 42.9319 41.7119 30.8925 41.7475V25.8869C30.8916 13.1613 41.0738 2.8122 53.5903 2.8122C66.1069 2.8122 76.2891 13.1613 76.2891 25.8869V41.7475Z" fill="white"/>
</g>
<defs>
<clipPath id="clip0_45_140">
<rect width="120" height="131.191" fill="white"/>
</clipPath>
</defs>
</svg>
