<svg width="354" height="85" viewBox="0 0 354 85" fill="none" xmlns="http://www.w3.org/2000/svg">
<path d="M27.2812 70.5777C22.2237 70.5777 17.6726 69.5345 13.6279 67.4481C9.58317 65.3616 6.39252 62.4699 4.04987 58.7729C1.71332 55.0759 0.541992 50.8848 0.541992 46.2117C0.541992 41.4715 1.72552 37.2498 4.09868 33.5528C6.47183 29.8558 9.69298 26.9458 13.7682 24.8289C17.8435 22.7119 22.4434 21.6504 27.5618 21.6504C31.2283 21.6504 34.5288 22.2178 37.4693 23.3586C40.4098 24.4933 43.1429 26.2381 45.6686 28.5747L34.0102 40.233C33.1866 39.4765 32.2715 38.9031 31.2588 38.5248C30.2461 38.1466 29.0138 37.9575 27.5618 37.9575C26.0427 37.9575 24.6701 38.2869 23.4378 38.9519C22.2054 39.6169 21.211 40.5503 20.4484 41.746C19.692 42.9478 19.3137 44.3693 19.3137 46.0104C19.3137 47.6575 19.692 49.0912 20.4484 50.3235C21.2049 51.5559 22.2176 52.5198 23.4805 53.2152C24.7433 53.9107 26.1037 54.2584 27.5557 54.2584C29.1968 54.2584 30.5572 54.0083 31.6309 53.502C32.7047 52.9956 33.6503 52.3001 34.4739 51.4155L46.1383 63.08C43.4174 65.6057 40.5745 67.4908 37.6035 68.7231C34.6447 69.9615 31.1978 70.5777 27.2812 70.5777Z" fill="#F2F0EF"/>
<path d="M98.2553 30.1365C96.7667 27.5742 94.6376 25.5549 91.8557 24.0663C89.0738 22.5839 85.7855 21.8396 81.997 21.8396C78.3305 21.8396 75.1216 22.5656 72.3763 24.0175C71.8272 24.3042 71.3148 24.6276 70.8145 24.9692V0.0358276H52.2197V69.4369H70.8023V43.2712C70.8023 42.0694 71.0403 41.0444 71.5161 40.1904C71.992 39.3363 72.6508 38.6896 73.5049 38.2442C74.359 37.805 75.3229 37.5793 76.3966 37.5793C77.9767 37.5793 79.2883 38.0673 80.3316 39.0495C81.3748 40.0317 81.8933 41.4349 81.8933 43.2712V69.4369H100.476V39.0007C100.482 35.6515 99.7377 32.6987 98.2553 30.1365Z" fill="#F2F0EF"/>
<path d="M160.236 69.4369L144.796 44.4425L159.291 22.7913H139.281L127.909 42.2829V0.0358276H109.32V69.4369H127.909V47.7491L139.378 69.4369H160.236Z" fill="#F2F0EF"/>
<path d="M200.993 22.6022C199.444 22.0958 197.595 21.8457 195.448 21.8457C190.763 21.8457 186.84 22.9743 183.692 25.2316V22.7913H165.109V69.4369H183.692V44.2168C183.692 42.1304 184.168 40.5381 185.113 39.4278C186.059 38.3236 187.487 37.7684 189.378 37.7684C190.513 37.7684 191.513 37.9453 192.367 38.287C193.221 38.6347 193.868 39.0618 194.313 39.5681L204.745 24.7801C203.788 23.8345 202.537 23.1085 200.993 22.6022Z" fill="#F2F0EF"/>
<path d="M291.52 84.0358C278.142 84.0358 267.032 78.1975 258.491 66.6917C256.405 63.8854 254.392 60.9753 252.446 58.1568C251.024 56.1009 249.548 53.9718 248.071 51.9098C246.931 50.3236 245.643 48.835 244.051 47.0841C242.63 45.5163 241.763 45.5163 241.477 45.5163C240.769 45.5163 239.915 45.925 238.933 46.7425C233.198 51.501 227.274 56.2046 221.546 60.7557C219.941 62.0307 218.337 63.3058 216.732 64.5808C213.072 67.4969 208.527 70.5351 202.548 70.9743C202.164 71.0048 201.792 71.017 201.432 71.017C197.436 71.017 194.984 69.1075 194.148 65.3312C194.148 65.3312 194.115 65.1979 194.099 65.1116C194.007 64.6246 193.997 64.3276 194.099 63.8426C194.121 63.7391 194.166 63.5803 194.166 63.5803C197.723 50.2504 205.05 38.6591 216.574 28.1416C221.29 23.8345 226.451 21.6566 231.917 21.6566C234.278 21.6566 236.724 22.0714 239.183 22.8828C241.129 23.5295 243.411 25.9392 243.551 28.2026C243.636 29.5508 243.301 30.6307 242.556 31.4176C241.837 32.1863 240.812 32.5768 239.524 32.5768C238.768 32.5768 238.018 32.4487 237.359 32.3327L237.212 32.3083C236.303 32.1558 235.413 32.0765 234.558 32.0765C230.837 32.0765 227.531 33.5895 224.45 36.7008C219.301 41.8986 210.678 51.9928 212.358 53.6728C214.038 55.3529 221.255 47.1578 221.255 47.1578L224.45 44.0846C224.45 44.0846 229.873 39.5986 233.131 37.4939C237.255 34.8279 241.043 33.5285 244.698 33.5285C250.06 33.5285 254.849 36.3043 259.345 42.0145C261.157 44.3144 262.89 46.7181 264.568 49.0363C266.209 51.3119 267.911 53.6667 269.662 55.8935C277.403 65.7338 284.877 70.1202 293.9 70.1202C297.975 70.1202 302.459 69.2478 307.596 67.4481C316.063 64.4832 324.476 60.7862 332.608 57.2112C335.854 55.7837 339.203 54.3134 342.522 52.9042L343.077 52.6662C344.816 51.9159 346.609 51.1411 348.647 51.1411C350.093 51.1411 351.478 51.5498 352.771 52.3551L353.747 52.9652V58.2788L352.862 58.895C337.001 69.9433 318.18 81.8945 295.62 83.865C294.241 83.9748 292.862 84.0358 291.52 84.0358Z" fill="#F2F0EF"/>
</svg>
