<svg width="120" height="120" viewBox="0 0 120 120" fill="none" xmlns="http://www.w3.org/2000/svg">
<g clip-path="url(#clip0_50_253)">
<path d="M18.4495 24.1216C18.1108 21.6545 18.0504 19.3303 18.2698 17.1062C7.96102 26.9805 1.25638 40.814 0 55.0392C2.01198 54.5885 3.7824 53.8918 5.28476 52.958C6.98449 42.1646 11.5254 32.2211 18.4495 24.1216Z" fill="white"/>
<path d="M34.5541 11.1705C50.0402 2.78673 69.4707 2.58937 85.2911 10.4222C86.7139 9.11725 88.1514 7.56334 90.0633 7.0007C72.7434 -3.26983 47.5731 -1.61576 30.8616 7.88591C32.2211 8.81236 33.3596 10.0599 34.5541 11.1705Z" fill="white"/>
<path d="M37.5603 67.0229C37.5942 71.0262 43.8687 71.0586 43.8407 66.9993C43.7347 62.9253 37.5736 62.8811 37.5603 67.0229Z" fill="white"/>
<path d="M87.4931 45.2917C80.8886 49.8768 69.9862 43.5699 73.2885 35.3761C64.0991 31.7145 54.9244 31.85 45.7084 35.3496C49.4673 43.4285 37.4322 50.1066 31.6614 45.1842C8.61054 74.62 34.5468 101.729 61.1812 101.468C62.5098 98.8536 65.3805 92.3449 66.6383 89.6215C64.4761 91.3993 61.2402 91.1769 59.5287 88.8335C56.0806 93.4378 48.7691 89.2754 50.7664 83.97C52.0507 82.5531 53.6562 83.7741 53.7519 85.4753C53.8477 87.1942 55.6888 88.3239 56.8819 86.8215C57.4283 86.169 57.7258 85.3854 57.7641 84.4958C57.664 84.1099 57.0439 83.8315 56.8215 83.4618C54.9936 80.5013 58.8261 79.7884 60.9795 80.2126C63.3803 80.5102 63.1034 83.4781 61.2446 84.3721C61.5833 85.5445 62.0576 87.5359 63.4893 87.5226C64.7736 87.4932 65.6058 86.063 65.5071 84.8066C65.7811 82.6591 68.805 83.1363 68.7328 85.0599C69.8095 82.855 70.9775 80.815 72.2398 78.9371C61.302 65.8018 81.0963 51.8682 89.7894 64.5572C91.6526 63.7294 93.3361 63.0681 95.3864 62.3184C94.2419 56.0939 91.4817 50.1243 87.4931 45.2917ZM39.5149 82.3321C23.7195 82.6974 24.4177 59.1546 38.8816 59.4801C52.933 59.6038 53.7387 81.2142 39.5149 82.3321ZM69.3927 55.1792L63.5615 55.3678C63.2698 55.3766 63.0165 55.5681 62.9252 55.845L61.084 61.4612C60.8793 62.0871 59.9985 62.1004 59.7746 61.4803L57.7347 55.8406C57.636 55.5666 57.3753 55.384 57.0836 55.384H51.1375C50.4851 55.384 50.1949 54.5621 50.703 54.1526L55.3559 50.3982C55.5769 50.22 55.6667 49.9269 55.5828 49.6559L53.8565 44.0309C53.665 43.4078 54.3632 42.8894 54.9052 43.2532L59.9337 46.6364C60.1708 46.7955 60.4816 46.794 60.7158 46.6305L65.491 43.3092C66.0315 42.9336 66.7414 43.452 66.5485 44.081L64.8016 49.7663C64.7147 50.0506 64.8178 50.3584 65.0594 50.5322L69.7741 53.9273C70.3103 54.3117 70.0525 55.1586 69.3927 55.1792Z" fill="white"/>
<path d="M18.0548 68.3602C15.1473 69.2233 7.58099 66.9462 5.71777 64.6029C12.9202 63.4172 17.3846 58.6199 21.2245 52.9817C18.6734 60.2033 18.4908 62.8531 18.0548 68.3602Z" fill="white"/>
<path d="M103.387 59.4874C102.272 59.9278 101.148 60.321 100.035 60.701C99.4972 58.091 98.8182 55.5223 97.9993 53.0051C99.5164 55.3249 101.304 57.5829 103.387 59.4874Z" fill="white"/>
<path d="M78.3788 70.0939C74.2547 69.8715 74.4962 63.8561 78.5585 63.8797C82.6266 64.0491 82.4794 70.1528 78.3788 70.0939Z" fill="white"/>
<path d="M119.533 58.86C122.314 42.6772 112.251 24.9259 100.804 14.6892C101.039 17.118 101.269 19.267 101.054 21.8372C108.858 30.2828 119.624 45.6481 109.587 56.0364C110.781 56.0261 111.83 55.3825 112.789 55.1247C114.762 54.674 116.606 56.2603 116.524 58.2841C116.232 65.4718 114.674 72.6272 112.049 79.3716C115.235 73.6493 118.196 67.7666 119.082 61.5907C119.212 60.6775 119.375 59.7687 119.533 58.86Z" fill="white"/>
<path d="M60.4625 115.818C58.7716 115.689 57.281 114.618 56.6359 113.049C56.6315 113.041 56.6285 113.03 56.6241 113.021C56.0924 111.781 56.0438 110.274 56.44 108.853C40.7786 125.87 10.4399 94.0534 6.96089 77.5732C4.75743 76.6379 3.1181 75.7512 1.34473 74.6863C7.34679 102.714 35.3157 124.51 62.797 118.705C66.4233 117.939 70.0393 116.692 73.5963 114.917C69.3396 115.537 64.7854 116.15 60.4625 115.818Z" fill="white"/>
<path d="M36.2024 43.4004C35.1743 43.3415 34.2818 42.6757 33.4746 41.3648C29.2975 34.5836 28.6582 22.9079 28.5772 18.2035C28.5757 18.1254 28.5978 18.0695 28.645 18.0238C28.698 17.9723 28.7775 17.9443 28.8526 17.9487C28.9263 17.9531 28.9823 17.987 29.0323 18.0547C29.0323 18.0547 41.5844 35.4968 41.5888 35.5027C42.4725 36.656 42.9159 38.369 42.0513 39.4103C39.7712 42.1484 37.8049 43.4917 36.2024 43.4004Z" fill="white"/>
<path d="M82.6548 43.0218C81.0493 43.0719 79.1183 41.6786 76.9134 38.8801C76.0753 37.8166 76.5629 36.1169 77.4761 34.9857C77.4805 34.9798 90.4803 17.8692 90.4803 17.8692C90.5318 17.8029 90.5893 17.7705 90.6614 17.7675C90.7366 17.7646 90.8146 17.7955 90.8662 17.8485C90.9118 17.8957 90.9325 17.9531 90.9295 18.0297C90.7262 22.7312 89.7851 34.3862 85.4341 41.057C84.5931 42.3473 83.6843 42.9894 82.6548 43.0218Z" fill="white"/>
<path d="M111.358 66.2142C104.387 85.8185 79.6293 108.908 63.5555 111.675C60.0044 111.401 63.3979 107.858 64.1138 106.314C66.3379 102.4 68.1053 98.3028 69.9141 94.0992C74.2562 81.9551 82.7725 71.3709 95.4688 67.4029C99.6857 65.9388 103.894 64.7016 107.956 62.7559C108.922 62.395 109.778 61.5997 110.808 61.4583C113.294 61.7484 111.728 64.7134 111.358 66.2142Z" fill="white"/>
</g>
<defs>
<clipPath id="clip0_50_253">
<rect width="120" height="119.647" fill="white"/>
</clipPath>
</defs>
</svg>
