<svg width="120" height="120" viewBox="0 0 120 120" fill="none" xmlns="http://www.w3.org/2000/svg">
<path fill-rule="evenodd" clip-rule="evenodd" d="M19.1986 0C8.59898 0 0 8.59898 0 19.1986V100.801C0 111.406 8.59898 120 19.1986 120H100.801C111.406 120 120 111.406 120 100.801V19.1986C120.005 8.59898 111.406 0 100.801 0H19.1986ZM19.1986 7.2001C12.5745 7.2001 7.2001 12.5745 7.2001 19.1986V100.801C7.2001 107.431 12.5745 112.8 19.1986 112.8H100.801C107.431 112.8 112.8 107.426 112.8 100.801V19.1986C112.805 12.5745 107.431 7.2001 100.801 7.2001H19.1986Z" fill="white"/>
<path fill-rule="evenodd" clip-rule="evenodd" d="M44.0029 21.6003V25.2004H54.6694V21.6003H44.0029ZM65.3358 21.6003V25.2004H76.0022V21.6003H65.3358ZM86.6687 21.6003V25.2004H92.0019C93.5499 25.2004 94.7997 26.4553 94.7997 27.9981V33.3314H98.3997V28.0033C98.3997 24.4701 95.5351 21.6055 92.0019 21.6055H86.6687V21.6003ZM98.4049 44.0029H94.8048V54.6694H98.4049V44.0029ZM98.4049 65.3358H94.8048V76.0023H98.4049V65.3358ZM98.4049 86.6687H94.8048V92.0019C94.8048 93.5499 93.5499 94.7997 92.007 94.7997H86.6738V98.3997H92.007C95.5402 98.3997 98.4049 95.5351 98.4049 92.0019V86.6687ZM76.0022 98.4049V94.8048H65.3358V98.4049H76.0022ZM54.6694 98.4049V94.8048H44.0029V98.4049H54.6694Z" fill="white"/>
<path d="M21.6003 28.0033C21.6003 24.465 24.465 21.6003 28.0033 21.6003H49.3362V98.4049H28.0033C24.4701 98.4049 21.6055 95.5402 21.6055 92.007V28.0033H21.6003Z" fill="white"/>
</svg>
