<svg width="250" height="83" viewBox="0 0 250 83" fill="none" xmlns="http://www.w3.org/2000/svg">
<path d="M18.2651 57.7395L19.939 44.9471L22.0241 33.2189C22.0494 33.1107 22.1179 32.7499 22.2298 32.1367C22.338 31.5234 22.4065 31.1915 22.4354 31.1374H14.9173L15.3249 30.3185H22.6735C24.3077 22.3349 27.1 15.1271 30.5452 11.2165C33.9904 7.30588 37.5944 5.35059 41.3534 5.35059C43.5324 5.35059 45.3975 5.96387 46.9524 7.19044C48.5036 8.41701 49.2828 9.90332 49.2828 11.6458C49.2828 12.7352 48.9365 13.6768 48.2403 14.4669C47.544 15.2569 46.6926 15.6501 45.6861 15.6501C44.6796 15.6501 43.8463 15.2894 43.1103 14.5679C42.3744 13.8464 42.0064 13.0094 42.0064 12.0534C42.0064 11.0974 42.3996 10.228 43.1897 9.43794C43.9797 8.64789 44.3766 8.21138 44.3766 8.13201C44.3766 7.10746 43.3989 5.98552 41.7647 5.98552C38.085 5.98552 35.6246 9.26478 34.0589 13.2403C32.4933 17.2194 31.227 23.7238 30.5199 30.2896L36.5734 30.3185L36.1658 31.1374H30.4045L27.421 48.8721C26.4398 54.6478 25.4441 59.3484 24.4376 62.9704C23.4311 66.5924 21.9917 69.2079 20.5054 71.9424C18.8098 75.0629 18.0414 76.0334 16.0356 78.2664C14.6828 79.7708 13.5716 80.752 11.8689 81.4447C10.1661 82.1409 8.60763 82.4873 7.18986 82.4873C5.2021 82.4873 3.50655 82.2528 2.10321 81.1489C0.699866 80.045 0 79.0348 0 77.48C0 76.4446 0.313857 75.5463 0.941572 74.7815C1.56929 74.0167 2.50725 73.6379 3.76268 73.6379C6.04987 73.6379 7.19708 74.9186 7.19708 77.48C7.19708 78.133 7.04917 78.7066 6.74613 79.1972C6.4467 79.6878 6.29519 80.0955 6.29519 80.4237C6.29519 80.9144 6.67759 81.1597 7.43878 81.1597C9.61775 81.1597 11.5947 80.0774 13.366 77.9093C15.1373 75.7448 16.7715 69.0203 18.2687 57.7431L18.2651 57.7395Z" fill="#F2F0EF"/>
<path d="M50.9927 63.0926L44.1276 38.2438C43.4746 35.8483 42.9912 34.3151 42.6773 33.6477C42.3635 32.9803 41.8945 32.6448 41.2668 32.6448C39.7408 32.6448 36.7754 35.5201 34.784 41.2669H34.2356C35.5993 36.8548 37.2335 33.5431 39.1383 31.3353C41.0467 29.1275 43.0056 28.0236 45.0222 28.0236C46.357 28.0236 47.5223 28.4998 48.518 29.4558C49.5136 30.4082 50.4733 32.5619 51.4004 35.9133L56.101 53.0383H56.2634C56.837 51.2418 58.3413 47.2302 60.78 41.0035C63.2188 34.7769 64.8999 31.0611 65.827 29.8454C66.7542 28.6332 67.8833 28.0272 69.2181 28.0272C71.343 28.0272 72.4072 29.0625 72.4072 31.1333C72.4072 32.1686 72.1258 32.9984 71.5702 33.6261C71.0111 34.2538 70.3906 34.5677 69.7123 34.5677C69.2758 34.5677 68.8069 34.3981 68.3018 34.0554C67.7967 33.7163 67.436 33.5431 67.2195 33.5431C65.8198 33.5431 64.6401 34.6687 63.226 38.1824L56.1155 55.8378C53.7994 61.5053 50.4877 67.3026 46.1839 73.2262C41.8801 79.1534 35.6606 82.7465 31.6635 82.7465C29.9751 82.7465 28.7161 82.3569 27.8827 81.5813C27.053 80.8057 26.6345 79.9399 26.6345 78.9875C26.6345 78.1974 26.9087 77.53 27.4534 76.9853C27.9982 76.4405 28.7197 76.1664 29.618 76.1664C31.4723 76.1664 32.7638 77.0502 33.4997 78.8215C34.0192 79.9399 34.5495 80.4954 35.0942 80.4954C36.3461 80.4954 38.4601 79.3049 41.4291 76.9203C44.3981 74.5357 47.5872 69.9253 50.9927 63.0854V63.0926Z" fill="#F2F0EF"/>
<path d="M88.0387 28.3555L85.9535 37.2229L86.1159 37.3852C90.7191 31.1478 95.4594 28.0272 100.337 28.0272C102.133 28.0272 103.62 28.5647 104.792 29.6398C105.965 30.7148 106.549 32.1543 106.549 33.9508C106.549 34.6868 106.329 35.9819 105.896 37.8325L102.177 52.9518C101.794 54.5319 101.603 55.7044 101.603 56.4656C101.603 57.8004 102.054 58.4677 102.952 58.4677C105.377 58.4677 109.294 55.4843 111.773 49.5174H112.227C110.647 53.796 108.721 56.9129 106.444 58.8754C104.168 60.8379 101.859 61.8192 99.5179 61.8192C95.7841 61.8192 93.919 60.0623 93.919 56.5485C93.919 55.3508 94.2184 53.5398 94.8173 51.1119L98.2517 37.4213C98.2769 37.2589 98.3888 36.8224 98.58 36.1117C98.7712 35.4047 98.865 34.6543 98.865 33.8642C98.865 32.0388 98.129 31.1261 96.6572 31.1261C93.3562 31.1261 91.7545 32.3815 88.7963 35.1305C85.8381 37.8831 84.478 43.2078 82.6815 50.863L80.2716 61.1626H72.5479L79.5754 31.1261H74.2362L74.6871 30.621H78.5147C83.6555 30.621 85.149 28.3447 88.0351 28.3447L88.0387 28.3555Z" fill="#F2F0EF"/>
<path d="M135.435 5.75378L124.399 53.2833C123.992 55.0005 123.786 56.2379 123.786 57.0027C123.786 57.9298 124.125 58.3916 124.807 58.3916C127.148 58.3916 130.817 55.271 133.162 49.0336H133.678C130.655 57.8072 126.582 62.1939 121.459 62.1939C120.042 62.1939 118.797 61.725 117.718 60.7834C116.643 59.8418 116.106 58.5287 116.106 56.8403C116.106 56.1874 116.297 55.0005 116.679 53.2833L126.979 8.45223H121.38L121.788 7.94718H127.304C131.874 7.94718 132.477 5.75378 135.435 5.75378Z" fill="#F2F0EF"/>
<path d="M144.659 61.1805V0H154.461V61.1805H144.659Z" fill="#F2F0EF"/>
<path d="M174.36 61.1802H164.559V20.0252H174.108V25.5196C176.813 20.7864 181.713 18.8456 186.276 18.8456C196.33 18.8456 201.15 26.1112 201.15 35.1553V61.1802H191.348V36.8437C191.348 31.775 189.068 27.7166 182.899 27.7166C177.322 27.7166 174.364 32.0276 174.364 37.4353V61.1802H174.36Z" fill="#F2F0EF"/>
<path d="M249.578 53.6587C249.578 57.3781 249.917 60.5023 250 61.1805H240.62C240.451 60.2497 240.198 57.5477 240.198 55.8557C238.254 59.319 233.946 62.1942 228.113 62.1942C216.284 62.1942 208.34 52.8975 208.34 40.4767C208.34 28.0559 216.367 18.9288 227.943 18.9288C235.126 18.9288 238.759 22.2261 240.029 24.8452V0H249.578V53.6587ZM229.213 53.5758C235.635 53.5758 240.115 48.251 240.115 40.3938C240.115 32.5365 235.721 27.6339 229.3 27.6339C222.878 27.6339 218.145 32.6195 218.145 40.4767C218.145 48.334 222.539 53.5758 229.213 53.5758Z" fill="#F2F0EF"/>
</svg>
