<svg width="180" height="87" viewBox="0 0 180 87" fill="none" xmlns="http://www.w3.org/2000/svg">
<path d="M15.0569 79.0704C15.0644 80.0725 14.86 81.0645 14.4586 81.9833C13.6862 83.7856 12.25 85.2218 10.4452 85.9942C9.52638 86.3956 8.53185 86.5975 7.52975 86.5925C6.5226 86.6001 5.52554 86.3956 4.60169 85.9942C2.80194 85.2193 1.3682 83.7831 0.598324 81.9833C0.199502 81.0645 -0.00495712 80.0725 9.12622e-05 79.0704V0.192017H3.79142V79.0729C3.78133 79.5727 3.8722 80.07 4.06151 80.5319C4.25083 80.9938 4.53101 81.4128 4.88692 81.7637C5.23021 82.1171 5.64165 82.3973 6.09601 82.5841C6.55036 82.7734 7.04005 82.8643 7.53227 82.8567C8.02954 82.8693 8.52175 82.7784 8.98115 82.5891C9.44056 82.3998 9.85452 82.1196 10.2003 81.7612C10.5512 81.4078 10.8289 80.9863 11.0131 80.5243C11.1974 80.0624 11.2883 79.5651 11.2782 79.0679V0.192017H15.0594V79.0704H15.0569Z" fill="white"/>
<path d="M38.6126 37.7618C38.6252 38.8472 38.388 39.9199 37.921 40.9019C37.4742 41.8434 36.8482 42.689 36.0809 43.3932C36.8482 44.0975 37.4742 44.9456 37.921 45.8871C38.388 46.8665 38.6227 47.9418 38.6126 49.0272V86.5947H34.8718V49.0247C34.8793 48.5325 34.786 48.0453 34.5966 47.591C34.4073 47.1366 34.1271 46.7252 33.7738 46.3844C33.4229 46.0285 33.0039 45.7483 32.5394 45.559C32.0775 45.3697 31.5802 45.2788 31.0804 45.2889H27.3396V86.5947H23.5432V0.191742H31.0729C32.075 0.186693 33.0695 0.391153 33.9883 0.789974C35.7931 1.56238 37.2294 2.99864 38.0043 4.80091C38.4031 5.71972 38.6076 6.71425 38.6025 7.71635L38.6126 37.7618ZM27.3371 3.97803V41.4976H31.0779C31.5752 41.5102 32.0699 41.4193 32.5344 41.2351C32.9963 41.0508 33.4178 40.7757 33.7712 40.4248C34.1297 40.0815 34.4124 39.6675 34.6017 39.2081C34.791 38.7487 34.8819 38.2565 34.8692 37.7592V7.71635C34.8819 7.22161 34.791 6.73192 34.6017 6.27504C34.4149 5.81816 34.1347 5.40419 33.7788 5.0609C33.4254 4.71004 33.0039 4.43743 32.5419 4.25316C32.08 4.0689 31.5853 3.98055 31.088 3.99317L27.3371 3.97803Z" fill="white"/>
<path d="M61.5171 37.7618C61.5323 38.5292 61.4212 39.2965 61.1915 40.0285C61.0072 40.6041 60.7573 41.1569 60.4444 41.6718C60.2247 42.0328 59.9748 42.376 59.6972 42.6941C59.571 42.8102 59.4599 42.944 59.3716 43.0929L59.0232 43.3908L59.3716 43.7416C59.7653 44.1884 60.1238 44.6604 60.4444 45.1602C60.7599 45.6853 61.0123 46.2456 61.1915 46.8287C61.4162 47.5557 61.5272 48.3104 61.5171 49.0702V79.0677C61.5247 80.0874 61.3228 81.0971 60.9189 82.0311C60.1642 83.8157 58.7405 85.2368 56.9534 85.9915C56.0346 86.3929 55.0401 86.5948 54.038 86.5897H46.5083V0.24228H54.038C55.0401 0.237231 56.0346 0.439167 56.9534 0.840513C57.8369 1.21914 58.6421 1.75932 59.3236 2.43328C60.0026 3.12238 60.5453 3.93517 60.9189 4.82873C61.3177 5.75763 61.5197 6.75721 61.5171 7.76689V37.7618ZM54.0354 3.97808H50.2441V41.5481H54.0354C54.5277 41.5557 55.0148 41.4623 55.4692 41.273C55.9235 41.0837 56.335 40.8035 56.6757 40.4501C57.0342 40.0992 57.3144 39.6802 57.5037 39.2183C57.693 38.7564 57.7839 38.2591 57.7738 37.7593V7.76436C57.7839 7.26457 57.693 6.76731 57.5037 6.30538C57.3144 5.84345 57.0342 5.42444 56.6757 5.07358C56.3324 4.72019 55.9235 4.44253 55.4666 4.25322C55.0173 4.0639 54.5277 3.97051 54.0354 3.97808ZM50.2466 82.859H54.038C54.5302 82.8666 55.0173 82.7732 55.4717 82.5839C55.9261 82.3945 56.3375 82.1169 56.6783 81.7635C57.0367 81.4126 57.3169 80.9936 57.5062 80.5317C57.6955 80.0698 57.7864 79.5725 57.7763 79.0727V49.0727C57.7864 48.5729 57.6955 48.0757 57.5062 47.6137C57.3169 47.1518 57.0367 46.7328 56.6783 46.3819C56.335 46.0285 55.9261 45.7509 55.4692 45.5616C55.0148 45.3723 54.5277 45.2789 54.0354 45.2864H50.2441V82.859H50.2466Z" fill="white"/>
<path d="M85.0828 86.5923H81.342V45.2865H73.8148V86.5923H70.074V7.76443C70.0715 6.75476 70.2759 5.7577 70.6748 4.8288C71.0483 3.93776 71.5885 3.12497 72.27 2.43587C72.9516 1.75939 73.7543 1.21921 74.6377 0.843106C75.5591 0.449332 76.5511 0.244873 77.5557 0.244873C78.5578 0.244873 79.5498 0.449332 80.4737 0.843106C81.3622 1.22426 82.1724 1.76443 82.8666 2.43587C83.5708 3.13507 84.1287 3.96553 84.5098 4.87928C84.891 5.79304 85.0854 6.77495 85.0854 7.76696V86.5923H85.0828ZM81.342 41.5482V7.76443C81.347 7.26464 81.2536 6.7699 81.0668 6.30798C80.8775 5.84605 80.5999 5.42703 80.2465 5.07365C79.8931 4.72026 79.4741 4.4426 79.0122 4.25329C78.5502 4.0665 78.0555 3.97058 77.5557 3.97815C77.0635 3.97058 76.5763 4.06397 76.1194 4.25329C75.6651 4.4426 75.2536 4.72026 74.9103 5.07365C74.5544 5.42451 74.2717 5.84352 74.0849 6.30545C73.8956 6.76738 73.8048 7.26464 73.8148 7.76443V41.5482H81.342Z" fill="white"/>
<path d="M112.309 86.5922H108.52L99.3144 27.8669V86.5922H95.5635V0.242188H99.3144L108.52 62.784V0.242188H112.299L112.309 86.5922Z" fill="white"/>
<path d="M121.747 0.242188H125.488V86.5922H121.747V0.242188Z" fill="white"/>
<path d="M172.473 3.95296V41.523H178.107V45.2613H172.473V82.8314H180V86.5697H168.724V0.217163H180V3.95549H172.473V3.95296Z" fill="white"/>
<path d="M155.96 61.6331V27.8267C155.96 24.3761 153.822 21.2562 149.026 20.1153V3.78124H158.726V8.93058H162.502V0H131.735V8.93058H135.519V3.78124H145.24V20.138C139.371 21.5162 138.306 24.4013 138.306 27.8494V61.6357H142.089V27.8267C142.089 25.7291 143.844 23.6542 147.133 23.6542C150.422 23.6542 152.176 25.724 152.176 27.8267V61.6331H155.96Z" fill="white"/>
<path d="M149.013 28.4626V86.784H145.24V28.4626C145.24 27.9603 145.439 27.4807 145.795 27.1248C146.151 26.7714 146.63 26.572 147.133 26.572C147.632 26.5745 148.112 26.774 148.463 27.1299C148.816 27.4833 149.013 27.9629 149.013 28.4626Z" fill="white"/>
<path d="M160.102 66.2195H152.646V69.9452H160.102V66.2195Z" fill="white"/>
<path d="M142.478 74.8297H135.021V78.5554H142.478V74.8297Z" fill="white"/>
</svg>
