<svg width="272" height="83" viewBox="0 0 272 83" fill="none" xmlns="http://www.w3.org/2000/svg">
<path d="M24.0961 63.569C19.5386 63.569 15.4373 62.629 11.7924 60.7488C8.14748 58.8686 5.27222 56.2627 3.16113 52.9311C1.05554 49.5996 0 45.8227 0 41.6115C0 37.3399 1.06654 33.5355 3.20511 30.204C5.34369 26.8724 8.24644 24.25 11.9188 22.3424C15.5913 20.4347 19.7365 19.4781 24.349 19.4781C27.6531 19.4781 30.6273 19.9894 33.2771 21.0174C35.927 22.04 38.3899 23.6123 40.6659 25.7179L30.16 36.2239C29.4178 35.5422 28.5931 35.0254 27.6805 34.6845C26.7679 34.3437 25.6574 34.1732 24.349 34.1732C22.9801 34.1732 21.7431 34.4701 20.6326 35.0694C19.5221 35.6686 18.626 36.5097 17.9387 37.5873C17.257 38.6703 16.9162 39.9512 16.9162 41.4301C16.9162 42.9145 17.257 44.2064 17.9387 45.3169C18.6205 46.4275 19.5331 47.2961 20.6711 47.9228C21.8091 48.5495 23.035 48.8629 24.3435 48.8629C25.8223 48.8629 27.0483 48.6375 28.0159 48.1812C28.9835 47.7249 29.8356 47.0982 30.5778 46.301L41.0892 56.8125C38.6373 59.0885 36.0754 60.7872 33.3981 61.8978C30.7317 63.0138 27.6256 63.569 24.0961 63.569Z" fill="#F2F0EF"/>
<path d="M88.0544 27.1253C86.713 24.8163 84.7943 22.9966 82.2874 21.6551C79.7805 20.3192 76.8173 19.6485 73.4032 19.6485C70.0992 19.6485 67.2074 20.3027 64.7335 21.6112C64.2387 21.8695 63.7769 22.1609 63.3261 22.4688V0H46.5693V62.541H63.3151V38.9617C63.3151 37.8786 63.5295 36.955 63.9583 36.1854C64.3871 35.4157 64.9809 34.8329 65.7505 34.4316C66.5202 34.0358 67.3888 33.8324 68.3564 33.8324C69.7803 33.8324 70.9623 34.2722 71.9024 35.1573C72.8425 36.0424 73.3098 37.3069 73.3098 38.9617V62.541H90.0555V35.1133C90.061 32.0951 89.3903 29.4343 88.0544 27.1253Z" fill="#F2F0EF"/>
<path d="M143.909 62.541L129.995 40.0172L143.057 20.5061H125.025L114.777 38.071V0H98.0259V62.541H114.777V42.9969L125.113 62.541H143.909Z" fill="#F2F0EF"/>
<path d="M180.637 20.3358C179.241 19.8795 177.575 19.6541 175.64 19.6541C171.418 19.6541 167.883 20.6711 165.046 22.7052V20.5062H148.3V62.541H165.046V39.8138C165.046 37.9337 165.475 36.4988 166.327 35.4982C167.179 34.5031 168.466 34.0029 170.17 34.0029C171.192 34.0029 172.094 34.1623 172.864 34.4702C173.633 34.7835 174.216 35.1684 174.617 35.6247L184.018 22.2984C183.155 21.4463 182.028 20.7921 180.637 20.3358Z" fill="#F2F0EF"/>
<path d="M232.015 60.4089C239.712 70.7774 249.614 81.4455 258.631 82.0049C267.648 82.5643 272.048 77.7322 270.971 75.1375C269.895 72.5428 267.192 71.1911 262.121 68.9054C257.05 66.6198 249.058 59.5457 242.081 50.6781C240.503 48.6714 238.97 46.5493 237.491 44.4987C235.979 42.4096 234.418 40.2436 232.785 38.171C228.733 33.0252 224.417 30.5238 219.585 30.5238C216.292 30.5238 212.878 31.6948 209.162 34.0972C206.226 35.9939 201.338 40.0364 201.338 40.0364L198.46 42.8058C198.46 42.8058 191.956 50.1909 190.442 48.6769C188.928 47.163 196.698 38.0665 201.338 33.3825C204.115 30.5787 207.094 29.2153 210.448 29.2153C211.218 29.2153 212.02 29.2868 212.839 29.4242L212.971 29.4462C213.565 29.5507 214.241 29.6661 214.923 29.6661C216.083 29.6661 217.007 29.3143 217.655 28.6216C218.326 27.9124 218.628 26.9393 218.551 25.7243C218.425 23.6847 216.369 21.5132 214.615 20.9304C212.4 20.1992 210.195 19.8254 208.068 19.8254C203.142 19.8254 198.491 21.788 194.241 25.6694C183.856 35.1473 177.253 45.5928 174.048 57.6051C174.048 57.6051 174.007 57.7482 173.988 57.8415C173.896 58.2785 173.905 58.5461 173.988 58.985C174.002 59.0628 174.032 59.1829 174.032 59.1829C174.785 62.5859 176.995 64.3067 180.596 64.3067C180.92 64.3067 181.256 64.2957 181.602 64.2682C186.99 63.8724 191.085 61.1345 194.384 58.5067L198.722 55.0597L198.914 54.907C204.016 50.8533 209.286 46.6666 214.39 42.4316C215.275 41.6949 216.045 41.3266 216.682 41.3266C216.941 41.3266 217.721 41.3266 219.002 42.7395C220.437 44.3173 221.597 45.6587 222.625 47.0881C223.956 48.9463 225.286 50.865 226.567 52.7177C228.321 55.2576 230.135 57.8799 232.015 60.4089Z" fill="#F2F0EF"/>
</svg>
